<svg xmlns="http://www.w3.org/2000/svg" viewBox="64 64 896 896" width="21" height="21" style="fill: rgba(255, 5, 47, 1);border-color: rgba(0,0,0,0);border-width: bpx;border-style: undefined" filter="none"><path d="M912 192H328c-4.4 0-8 3.6-8 8v56c0 4.4 3.6 8 8 8h584c4.4 0 8-3.6 8-8v-56c0-4.4-3.6-8-8-8zm0 284H328c-4.4 0-8 3.6-8 8v56c0 4.4 3.6 8 8 8h584c4.4 0 8-3.6 8-8v-56c0-4.4-3.6-8-8-8zm0 284H328c-4.4 0-8 3.6-8 8v56c0 4.4 3.6 8 8 8h584c4.4 0 8-3.6 8-8v-56c0-4.4-3.6-8-8-8zM104 228a56 56 0 1 0 112 0 56 56 0 1 0-112 0zm0 284a56 56 0 1 0 112 0 56 56 0 1 0-112 0zm0 284a56 56 0 1 0 112 0 56 56 0 1 0-112 0z"></path></svg>